<svg xmlns="http://www.w3.org/2000/svg" viewBox="0 0 675.92 230.37"><defs><style>.cls-1{fill:#0e1922;}.cls-2{fill:#653d1c;}.cls-3{fill:#ebce2c;}.cls-4{fill:#ed1c24;}</style></defs><title>cuatrochu404</title><g id="Layer_3" data-name="Layer 3"><path class="cls-1" d="M193.47,261.48q0,15.09-8.67,23a29.64,29.64,0,0,1-20.7,7.92,29.19,29.19,0,0,1-20.35-7.92q-8.67-7.92-8.67-23V211.33H58.29q-29,0-29-31.29V98.6q0-15.07,8.67-23a29.19,29.19,0,0,1,20.35-7.92A29.64,29.64,0,0,1,79,75.6q8.67,7.92,8.67,23v50.14h47.42V98.6q0-15.07,8.67-23a29.19,29.19,0,0,1,20.35-7.92,29.64,29.64,0,0,1,20.7,7.92q8.67,7.92,8.67,23Z" transform="translate(-29.27 -63.91)"/><path class="cls-1" d="M214.35,179.28a120.33,120.33,0,0,1,31.49-81.62A106.67,106.67,0,0,1,280.17,73a102.49,102.49,0,0,1,84.22,0,108.81,108.81,0,0,1,34.5,24.7,116.71,116.71,0,0,1,23.18,36.76,122.65,122.65,0,0,1,0,89.73,114.37,114.37,0,0,1-23.18,36.57,110.17,110.17,0,0,1-34.5,24.51,102.49,102.49,0,0,1-84.22,0,108,108,0,0,1-34.33-24.51,115.86,115.86,0,0,1-23-36.57A119.1,119.1,0,0,1,214.35,179.28Zm59.45.76a55.15,55.15,0,0,0,3.71,20.36A51.76,51.76,0,0,0,288,217a48,48,0,0,0,15.57,11.12,46.25,46.25,0,0,0,19.11,4,47.5,47.5,0,0,0,19.29-4A45.69,45.69,0,0,0,357.49,217a56.25,56.25,0,0,0,10.44-16.59A52.89,52.89,0,0,0,371.82,180a54.33,54.33,0,0,0-3.89-20.55,53.2,53.2,0,0,0-10.44-16.59,49.49,49.49,0,0,0-15.57-11.12,45.74,45.74,0,0,0-19.29-4.15,44.54,44.54,0,0,0-19.11,4.15A52.25,52.25,0,0,0,288,142.9a49.18,49.18,0,0,0-10.44,16.59A56.66,56.66,0,0,0,273.8,180Z" transform="translate(-29.27 -63.91)"/></g><g id="cuatrochu"><g id="Colita"><path class="cls-2" d="M627.53,202.66l-6.7-7.1-1.58,4.65h0c.59,1.56,1.19,3.11,1.79,4.67l-18.23,4.27q2.18,4.67,4.34,9.34l-18.91,7.64,7.73,4.85L624,224.58l-4.21-7.6,20.49-5.31L635.33,200l-6-4.79Z" transform="translate(-29.27 -63.91)"/><path class="cls-3" d="M705.19,142.48q-35.85,3.42-72.32,10,2.45,8.82,4.88,17.64,1.05,3.78,2.09,7.58l-25.74,9.16,5.1,13.33h0l1.58-4.65,6.7,7.1,1.79-7.44,6,4.79c-.33-.8-.67-1.6-1-2.39L659.46,192q-2.62-9.53-5.26-19l-.21-.77,29.73,5.72Z" transform="translate(-29.27 -63.91)"/></g><g id="Cuatro"><path class="cls-3" d="M603.37,76.5a28.66,28.66,0,0,0-20.2-7.86,28.23,28.23,0,0,0-19.86,7.86q-8.47,7.86-8.47,22.84v49.79H508.56V99.34a41.28,41.28,0,0,0-1.1-9.84A285.89,285.89,0,0,1,467,107.4q-7.78,2.76-15.42,5v67.79q0,31.08,28.32,31.07h75v49.79q0,15,8.47,22.84a28.23,28.23,0,0,0,19.86,7.86,28.66,28.66,0,0,0,20.2-7.86q8.46-7.86,8.46-22.84V99.34Q611.83,84.37,603.37,76.5Z" transform="translate(-29.27 -63.91)"/><path class="cls-1" d="M507.46,89.5a25.62,25.62,0,0,0-7.36-13,28.67,28.67,0,0,0-20.21-7.86A28.25,28.25,0,0,0,460,76.5q-8.46,7.86-8.46,22.84v13.08q7.64-2.25,15.42-5A285.89,285.89,0,0,0,507.46,89.5Z" transform="translate(-29.27 -63.91)"/><path class="cls-1" d="M555.94,89.5a25.56,25.56,0,0,1,7.37-13,28.66,28.66,0,0,1,20.2-7.86,28.23,28.23,0,0,1,19.86,7.86q8.48,7.86,8.46,22.84v13.08q-7.62-2.25-15.42-5A285.89,285.89,0,0,1,555.94,89.5Z" transform="translate(-29.27 -63.91)"/><circle class="cls-4" cx="445.23" cy="110.86" r="14.97"/><circle class="cls-4" cx="557.17" cy="110.86" r="14.97"/></g></g></svg>